<svg viewBox="0 0 64 64" xmlns="http://www.w3.org/2000/svg"><g id="Password"><g fill="#f26a69"><path d="m53.42 14.43c1.53 1.46 1.28 3.73.27 5.59a10.62 10.62 0 0 1 -6.23 5.34s-3.46-.9-5.93-5.36c-1-1.84-1.37-4.13.16-5.59s4.29-1 5.6 1.34c0 0 .26.52.27.52l.26-.52c1.32-2.35 4.08-2.75 5.6-1.32z"/><path d="m34.38 18.16c-4.07-2.63-10.16-.73-12.55 5.08 0 0-.47 1.31-.49 1.33s-.77-1.18-.77-1.18c-3.81-5.3-10.52-5.59-13.76-1.66s-1.92 9 .88 13c7.31 10.27 15.94 11.52 15.94 11.52s8.88-3.25 13.37-14.47c1.9-4.73 1.87-10.21-2.18-13.3z"/><path d="m57.25 31.79c-2.71-3.08-8.12-2.93-11.42 1.26l-.7 1s-.36-1.14-.36-1.14c-1.89-5.21-7.31-7-10.86-4.53s-3.63 6.86-2.28 10.82c3.58 10.04 10.37 13.06 10.37 13.06s8-.58 14.28-8.73c2.64-3.42 3.88-7.91 1.29-11.37-.11-.16-.21-.25-.32-.37z"/></g><path d="m23.63 47.25h-.14c-.37-.05-9.17-1.43-16.62-11.93-3.58-5.2-3.87-10.51-.87-14.22a8.47 8.47 0 0 1 6.94-3 10.8 10.8 0 0 1 8.11 4.36 10.92 10.92 0 0 1 6.54-6 8.6 8.6 0 0 1 7.29.89 6 6 0 0 1 .52.36c4.7 3.58 4.37 9.82 2.51 14.47-4.63 11.54-13.6 14.91-14 15a1 1 0 0 1 -.28.07zm-11-27.19a6.5 6.5 0 0 0 -5.09 2.31c-3.64 4.42-.21 10.14.93 11.79 6.24 8.8 13.58 10.75 15 11.06 1.4-.61 8.69-4.15 12.56-13.81 1.6-4 1.94-9.24-1.86-12.14-.13-.09-.26-.19-.4-.27a6.58 6.58 0 0 0 -5.6-.66 9 9 0 0 0 -5.48 5.28c-.51 1.44-.51 1.44-.64 1.59a1 1 0 0 1 -1.37.16c-.16-.12-.16-.12-1-1.44a8.87 8.87 0 0 0 -6.81-3.87z"/><path d="m23.71 41.47a1 1 0 0 1 -.65-1.77 29.38 29.38 0 0 0 4.94-5.3 1 1 0 0 1 1.4-.21 1 1 0 0 1 .22 1.39 32 32 0 0 1 -5.23 5.66 1 1 0 0 1 -.68.23z"/><path d="m31.58 31.5a1 1 0 0 1 -.88-1.5l.48-.94a1 1 0 0 1 1.82.94l-.5 1a1 1 0 0 1 -.92.5z"/><path d="m41.84 53.26a1 1 0 0 1 -.41-.09c-.27-.12-6.72-3.12-10.46-12.67a1 1 0 1 1 1.87-.73c3 7.77 8.07 10.86 9.19 11.46a21.29 21.29 0 0 0 13.41-8.23c2.21-2.83 3.72-7 1.35-10.2a5.47 5.47 0 0 0 -4.34-2.13 7.37 7.37 0 0 0 -5.87 3c-.81 1.12-.81 1.12-1 1.24a1 1 0 0 1 -1.35-.46c0-.09 0-.09-.4-1.3a8.62 8.62 0 0 0 -1.05-2 1 1 0 1 1 1.63-1.15 9.87 9.87 0 0 1 1.08 1.94 9.32 9.32 0 0 1 7-3.24 7.42 7.42 0 0 1 5.91 2.94c3 4.1 1.29 9.21-1.37 12.62-6.56 8.41-14.76 9.06-15.11 9.08z"/><path d="m43.55 31.5a1 1 0 0 1 -.82-.43 7.81 7.81 0 0 0 -1.11-1.25 1 1 0 1 1 1.38-1.49 9.33 9.33 0 0 1 1.41 1.59 1 1 0 0 1 -.24 1.39.93.93 0 0 1 -.62.19z"/><path d="m43.27 48.54a1 1 0 0 1 -.41-1.91 25.62 25.62 0 0 0 5-3 1 1 0 0 1 1.21 1.59 27.64 27.64 0 0 1 -5.44 3.25 1 1 0 0 1 -.36.07z"/><path d="m52.31 42a1 1 0 0 1 -.73-1.69l.39-.41a1 1 0 1 1 1.47 1.35c-.13.15-.27.3-.41.44a1 1 0 0 1 -.72.31z"/><path d="m47.46 26.36a1.07 1.07 0 0 1 -.25 0c-.16 0-3.86-1.07-6.55-5.81-1.47-2.59-1.34-5.2.34-6.81a4.07 4.07 0 0 1 3.5-1.08 4.89 4.89 0 0 1 3.06 1.76 4.9 4.9 0 0 1 3-1.76 4.1 4.1 0 0 1 3.51 1.08c1.67 1.61 1.85 4.21.45 6.79a11.56 11.56 0 0 1 -6.88 5.83.85.85 0 0 1 -.18 0zm-3.62-11.78a2.09 2.09 0 0 0 -1.46.57c-1.17 1.13-.76 3 0 4.38a10.36 10.36 0 0 0 5.08 4.78 9.81 9.81 0 0 0 5.33-4.76c.36-.67 1.42-3-.08-4.4a2.11 2.11 0 0 0 -1.82-.54 3.11 3.11 0 0 0 -2.22 1.64c-.3.63-.3.63-.43.75a1 1 0 0 1 -1.41 0c-.12-.12-.12-.12-.45-.79a3.08 3.08 0 0 0 -2.19-1.6z"/></g></svg>