<?xml version="1.0" encoding="UTF-8" standalone="no"?>
<!-- Created with Inkscape (http://www.inkscape.org/) -->

<svg
   version="1.1"
   id="svg2823"
   xml:space="preserve"
   width="682.66669"
   height="682.66669"
   viewBox="0 0 682.66669 682.66669"
   xmlns="http://www.w3.org/2000/svg"
   xmlns:svg="http://www.w3.org/2000/svg"><defs
     id="defs2827"><clipPath
       clipPathUnits="userSpaceOnUse"
       id="clipPath2837"><path
         d="M 0,512 H 512 V 0 H 0 Z"
         id="path2835" /></clipPath></defs><g
     id="g2829"
     transform="matrix(1.3333333,0,0,-1.3333333,0,682.66667)"><g
       id="g2831"><g
         id="g2833"
         clip-path="url(#clipPath2837)"><g
           id="g2839"
           transform="translate(239.6782,217.8896)"><path
             d="m 0,0 -74.979,-129.867 c -7.254,-12.564 1.814,-28.27 16.322,-28.27 H 91.301 c 14.508,0 23.575,15.706 16.321,28.27 L 32.644,0 C 25.389,12.564 7.254,12.564 0,0"
             style="fill:#7caabf;fill-opacity:1;fill-rule:nonzero;stroke:none"
             id="path2841" /></g><g
           id="g2843"
           transform="translate(482,267.313)"><path
             d="m 0,0 h -452 c -11.046,0 -20,-8.954 -20,-20 0,-11.045 8.954,-20 20,-20 H 0 c 11.046,0 20,8.955 20,20 C 20,-8.954 11.046,0 0,0"
             style="fill:#ffffff;fill-opacity:1;fill-rule:nonzero;stroke:none"
             id="path2845" /></g><g
           id="g2847"
           transform="translate(239.6782,217.8896)"><path
             d="m 0,0 -74.979,-129.867 c -7.254,-12.564 1.814,-28.27 16.322,-28.27 H 91.301 c 14.508,0 23.575,15.706 16.321,28.27 L 32.644,0 C 25.389,12.564 7.254,12.564 0,0 Z"
             style="fill:none;stroke:#000000;stroke-width:20;stroke-linecap:round;stroke-linejoin:round;stroke-miterlimit:10;stroke-dasharray:none;stroke-opacity:1"
             id="path2849" /></g><g
           id="g2851"
           transform="translate(155,227.313)"><path
             d="m 0,0 h 327 c 11.046,0 20,8.955 20,20 0,11.046 -8.954,20 -20,20 h -452 c -11.046,0 -20,-8.954 -20,-20 0,-11.045 8.954,-20 20,-20 h 35"
             style="fill:none;stroke:#000000;stroke-width:20;stroke-linecap:round;stroke-linejoin:round;stroke-miterlimit:10;stroke-dasharray:none;stroke-opacity:1"
             id="path2853" /></g><g
           id="g2855"
           transform="translate(190.8916,267.313)"><path
             d="m 0,0 h -161.783 c -10.553,0 -19.109,8.555 -19.109,19.108 v 106.718 c 0,10.553 8.556,19.108 19.109,19.108 H 0 c 10.553,0 19.108,-8.555 19.108,-19.108 V 19.108 C 19.108,8.555 10.553,0 0,0"
             style="fill:#e2a284;fill-opacity:1;fill-rule:nonzero;stroke:none"
             id="path2857" /></g><g
           id="g2859"
           transform="translate(10,393.1387)"><path
             d="m 0,0 v -33.139 l 80,-17.66 h 40 l 80,17.66 V 0 c 0,10.553 -8.555,19.108 -19.108,19.108 H 19.108 C 8.555,19.108 0,10.553 0,0"
             style="fill:#ffce62;fill-opacity:1;fill-rule:nonzero;stroke:none"
             id="path2861" /></g><g
           id="g2863"
           transform="translate(190.8916,267.313)"><path
             d="m 0,0 h -161.783 c -10.553,0 -19.109,8.555 -19.109,19.108 v 106.718 c 0,10.553 8.556,19.108 19.109,19.108 H 0 c 10.553,0 19.108,-8.555 19.108,-19.108 V 19.108 C 19.108,8.555 10.553,0 0,0 Z"
             style="fill:none;stroke:#000000;stroke-width:20;stroke-linecap:round;stroke-linejoin:round;stroke-miterlimit:10;stroke-dasharray:none;stroke-opacity:1"
             id="path2865" /></g><g
           id="g2867"
           transform="translate(136.7173,452.2471)"><path
             d="m 0,0 h -53.435 c -3.836,0 -6.945,-3.11 -6.945,-6.946 V -40 H 6.946 V -6.946 C 6.946,-3.11 3.836,0 0,0 Z"
             style="fill:none;stroke:#000000;stroke-width:20;stroke-linecap:round;stroke-linejoin:round;stroke-miterlimit:10;stroke-dasharray:none;stroke-opacity:1"
             id="path2869" /></g><g
           id="g2871"
           transform="translate(110,315.1597)"><path
             d="M 0,0 V 0 C -11.046,0 -20,8.955 -20,20 V 45.042 H 20 V 20 C 20,8.955 11.046,0 0,0"
             style="fill:#ffffff;fill-opacity:1;fill-rule:nonzero;stroke:none"
             id="path2873" /></g><g
           id="g2875"
           transform="translate(110,315.1597)"><path
             d="M 0,0 V 0 C -11.046,0 -20,8.955 -20,20 V 45.042 H 20 V 20 C 20,8.955 11.046,0 0,0 Z"
             style="fill:none;stroke:#000000;stroke-width:20;stroke-linecap:round;stroke-linejoin:round;stroke-miterlimit:10;stroke-dasharray:none;stroke-opacity:1"
             id="path2877" /></g><g
           id="g2879"
           transform="translate(130,342.3398)"><path
             d="M 0,0 80,17.66"
             style="fill:none;stroke:#000000;stroke-width:20;stroke-linecap:round;stroke-linejoin:round;stroke-miterlimit:10;stroke-dasharray:none;stroke-opacity:1"
             id="path2881" /></g><g
           id="g2883"
           transform="translate(90,342.3398)"><path
             d="M 0,0 -80,17.66"
             style="fill:none;stroke:#000000;stroke-width:20;stroke-linecap:round;stroke-linejoin:round;stroke-miterlimit:10;stroke-dasharray:none;stroke-opacity:1"
             id="path2885" /></g><g
           id="g2887"
           transform="translate(484.9937,426.748)"><path
             d="m 0,0 v 0 c -22.676,22.675 -59.44,22.675 -82.115,0 -22.676,22.675 -59.44,22.675 -82.115,0 -22.676,-22.675 -22.676,-59.439 0,-82.115 l 73.929,-73.929 c 4.521,-4.521 11.85,-4.521 16.371,0 L 0,-82.115 C 22.675,-59.439 22.675,-22.675 0,0"
             style="fill:#ff7e99;fill-opacity:1;fill-rule:nonzero;stroke:none"
             id="path2889" /></g><g
           id="g2891"
           transform="translate(484.9937,426.748)"><path
             d="m 0,0 v 0 c -22.676,22.675 -59.44,22.675 -82.115,0 -22.676,22.675 -59.44,22.675 -82.115,0 -22.676,-22.675 -22.676,-59.439 0,-82.115 l 73.929,-73.929 c 4.521,-4.521 11.85,-4.521 16.371,0 L 0,-82.115 C 22.675,-59.439 22.675,-22.675 0,0 Z"
             style="fill:none;stroke:#000000;stroke-width:20;stroke-linecap:round;stroke-linejoin:round;stroke-miterlimit:10;stroke-dasharray:none;stroke-opacity:1"
             id="path2893" /></g><g
           id="g2895"
           transform="translate(110,227.313)"><path
             d="M 0,0 V 0"
             style="fill:none;stroke:#000000;stroke-width:20;stroke-linecap:round;stroke-linejoin:round;stroke-miterlimit:10;stroke-dasharray:none;stroke-opacity:1"
             id="path2897" /></g></g></g></g></svg>
